<svg width="219" height="217" viewBox="0 0 219 217" fill="none" xmlns="http://www.w3.org/2000/svg">
<g clip-path="url(#clip0_169_266407)">
<path d="M45.2277 143.778L88.0796 118.068L219 191.66L174.338 217L45.2277 143.778Z" fill="#E6E7E8"/>
<path d="M67.1467 118.802L0 80.8714V72.55L67.1467 110.481V118.802Z" fill="#464646"/>
<path d="M67.1467 118.802L105.488 96.8305V88.5147L67.1467 110.481V118.802Z" fill="#F3901D"/>
<path d="M0 72.55L38.3415 50.5838L105.488 88.5147L67.1467 110.481L0 72.55Z" fill="#A7A9AC"/>
<path d="M102.199 174.653L67.0291 154.329V67.9214L102.199 88.2457V174.653Z" fill="#BB170B"/>
<circle cx="16.1658" cy="16.1658" r="16.1658" transform="matrix(0.866025 0.5 0 1 70 93.3342)" fill="white"/>
<circle cx="14.3893" cy="14.3893" r="14.3893" transform="matrix(0.866025 0.5 0 1 71.5385 95.9989)" fill="#E91B1A"/>
<path fill-rule="evenodd" clip-rule="evenodd" d="M82.9792 110.261C83.3077 109.853 83.1555 108.972 82.6395 108.293C82.1233 107.615 81.4386 107.396 81.1102 107.804L77.2073 112.655L74.4923 111.087C73.8805 110.734 73.3846 111.022 73.3846 111.731C73.3846 112.439 73.8805 113.3 74.4923 113.653L74.6919 113.768L76.373 124.475C76.6837 126.453 78.0475 128.536 79.6315 129.45L89.2915 135.027C90.8755 135.942 92.2394 135.434 92.55 133.814L94.2311 125.049L94.4307 125.165C95.0425 125.518 95.5384 125.23 95.5384 124.521C95.5384 123.813 95.0425 122.952 94.4307 122.599L91.7157 121.031L87.8128 111.674C87.4844 110.887 86.7997 110.315 86.2835 110.397C85.7675 110.48 85.6154 111.185 85.9438 111.972L89.0898 119.515L79.8332 114.171L82.9792 110.261ZM77.7964 115.561C77.8084 115.568 77.8203 115.575 77.8322 115.581L91.0908 123.236C91.1027 123.243 91.1146 123.25 91.1266 123.257L91.9719 123.745L90.3777 132.057C90.2741 132.597 89.8195 132.766 89.2915 132.461L79.6315 126.884C79.1035 126.579 78.6489 125.885 78.5454 125.226L76.9511 115.073L77.7964 115.561Z" fill="white"/>
<mask id="path-9-outside-1_169_266407" maskUnits="userSpaceOnUse" x="81.9481" y="119.244" width="11.2583" height="18.5" fill="black">
<rect fill="white" x="81.9481" y="119.244" width="11.2583" height="18.5"/>
<path fill-rule="evenodd" clip-rule="evenodd" d="M86.9931 124.699C85.9846 123.297 84.582 122.598 83.6801 123.118C84.1899 124.001 84.8596 124.679 85.5277 125.059C85.0535 125.458 84.7692 126.152 84.7692 127.087C84.7692 129.245 86.2846 131.87 88.1538 132.949C90.0231 134.029 91.5385 133.154 91.5385 130.995C91.5385 128.837 90.0231 126.212 88.1538 125.133C87.7461 124.897 87.3552 124.755 86.9931 124.699Z"/>
</mask>
<path fill-rule="evenodd" clip-rule="evenodd" d="M86.9931 124.699C85.9846 123.297 84.582 122.598 83.6801 123.118C84.1899 124.001 84.8596 124.679 85.5277 125.059C85.0535 125.458 84.7692 126.152 84.7692 127.087C84.7692 129.245 86.2846 131.87 88.1538 132.949C90.0231 134.029 91.5385 133.154 91.5385 130.995C91.5385 128.837 90.0231 126.212 88.1538 125.133C87.7461 124.897 87.3552 124.755 86.9931 124.699Z" fill="#5DCF4A"/>
<path d="M83.6801 123.118L82.8254 121.638L81.9706 122.131L82.8254 123.612L83.6801 123.118ZM86.9931 124.699L86.2974 125.438L86.8141 126.157L87.4077 126.249L86.9931 124.699ZM85.5277 125.059L86.4651 126.482L88.0866 125.118L85.5184 123.658L85.5277 125.059ZM84.5349 124.599C85.0141 124.322 85.7612 124.693 86.2974 125.438L87.6889 123.959C86.208 121.9 84.15 120.873 82.8254 121.638L84.5349 124.599ZM85.5184 123.658C85.1608 123.455 84.8064 123.095 84.5349 122.625L82.8254 123.612C83.5734 124.907 84.5584 125.904 85.537 126.46L85.5184 123.658ZM85.978 127.785C85.978 127.183 86.16 126.738 86.4651 126.482L84.5903 123.637C83.947 124.178 83.5604 125.122 83.5604 126.389L85.978 127.785ZM88.1538 131.554C86.9522 130.86 85.978 129.172 85.978 127.785L83.5604 126.389C83.5604 129.318 85.617 132.88 88.1538 134.345V131.554ZM90.3297 130.297C90.3297 131.685 89.3555 132.247 88.1538 131.554V134.345C90.6907 135.81 92.7473 134.622 92.7473 131.693L90.3297 130.297ZM88.1538 126.529C89.3555 127.222 90.3297 128.91 90.3297 130.297L92.7473 131.693C92.7473 128.764 90.6907 125.202 88.1538 123.737V126.529ZM87.4077 126.249C87.6388 126.285 87.8895 126.376 88.1538 126.529V123.737C87.6026 123.419 87.0715 123.225 86.5786 123.148L87.4077 126.249Z" fill="white" mask="url(#path-9-outside-1_169_266407)"/>
<path d="M102.199 174.653L161.244 141.099V54.6857L154.935 25.3227L134.697 31.4531L125.301 75.1165L102.199 88.2457V174.653Z" fill="#F01100"/>
<path d="M134.697 31.4531L99.5378 10.7982L120.633 5.1217L154.935 25.3227L134.697 31.4531Z" fill="#FF4436"/>
<path d="M125.301 75.1165L90.1415 54.4615L99.5378 10.7982L134.697 31.4531L125.301 75.1165Z" fill="#808285"/>
<path d="M125.301 75.1165L90.1416 54.4615L67.0291 67.9214L102.199 88.2457L125.301 75.1165Z" fill="#A7A9AC"/>
<path d="M121.608 69.496C121.518 69.9331 121.132 70.1068 120.751 69.8827L109.808 63.5506C109.422 63.3265 109.181 62.7885 109.27 62.357L110.839 54.596C110.929 54.1589 111.315 53.9852 111.696 54.2094L122.639 60.5415C123.026 60.7656 123.267 61.2979 123.177 61.735L121.608 69.496Z" fill="#323232"/>
<path d="M102.692 53.7499C102.681 53.8171 102.625 53.8451 102.563 53.8115L95.6829 50.0739C95.6213 50.0403 95.5821 49.9618 95.5933 49.8946L95.6213 49.7321C95.6325 49.6648 95.6885 49.6368 95.7502 49.6704L102.631 53.408C102.692 53.4417 102.732 53.5201 102.72 53.5874L102.692 53.7499Z" fill="#323232"/>
<g style="mix-blend-mode:multiply" opacity="0.4">
<path d="M125.233 56.7702C124.931 58.1039 123.721 58.6306 122.538 57.9358L98.8038 43.994C97.6272 43.2991 96.9044 41.6405 97.207 40.3068L101.914 19.5174C102.216 18.1837 103.426 17.657 104.609 18.3518L128.343 32.2936C129.52 32.9885 130.242 34.6471 129.94 35.9808L125.233 56.7702Z" fill="#939598"/>
</g>
<path d="M124.92 56.3556C124.617 57.6892 123.407 58.216 122.225 57.5211L98.4901 43.5793C97.3134 42.8845 96.5906 41.2258 96.8932 39.8921L101.6 19.1027C101.902 17.7691 103.113 17.2423 104.295 17.9372L128.029 31.879C129.206 32.5738 129.929 34.2325 129.626 35.5661L124.92 56.3556Z" fill="#89D4E3"/>
<g style="mix-blend-mode:multiply" opacity="0.3">
<path d="M98.0362 43.2375C98.1819 43.3664 98.3331 43.484 98.4956 43.5793L122.23 57.5211C123.407 58.2159 124.623 57.6892 124.925 56.3555L129.632 35.5661C129.934 34.2325 129.217 32.5738 128.035 31.879L98.0362 43.2319V43.2375Z" fill="#89D4E3"/>
</g>
<path d="M138.574 81.23L127.419 75.1389L131.47 56.3219L142.625 62.4131L138.574 81.23Z" fill="#414042"/>
<path d="M138.574 81.23L143.04 79.2295L147.091 60.4126L142.625 62.4131L138.574 81.23Z" fill="#323232"/>
<path d="M131.469 56.3219L135.935 54.3215L147.091 60.4126L142.625 62.4131L131.469 56.3219Z" fill="#58595B"/>
<path d="M132.663 69.2775C132.624 69.4792 132.439 69.5577 132.265 69.4624L130.657 68.5771C130.483 68.4818 130.371 68.2352 130.41 68.0335L130.562 67.3387C130.607 67.1369 130.786 67.0529 130.965 67.1537L132.573 68.0391C132.753 68.14 132.859 68.3809 132.82 68.5827L132.669 69.2831L132.663 69.2775Z" fill="#D1D3D4"/>
<path d="M135.655 70.9194C135.61 71.1211 135.431 71.1995 135.252 71.1043L133.643 70.2189C133.464 70.1237 133.352 69.8771 133.397 69.6754L133.548 68.9805C133.593 68.7788 133.772 68.7003 133.946 68.7956L135.554 69.681C135.733 69.7762 135.84 70.0228 135.801 70.2245L135.649 70.9194H135.655Z" fill="#D1D3D4"/>
<path d="M138.647 72.5668C138.602 72.763 138.423 72.847 138.244 72.7517L136.635 71.8664C136.456 71.7655 136.35 71.5246 136.389 71.3228L136.54 70.628C136.585 70.4262 136.764 70.3422 136.944 70.4431L138.552 71.3284C138.731 71.4293 138.843 71.6702 138.798 71.872L138.647 72.5724V72.5668Z" fill="#D1D3D4"/>
<path d="M132.215 71.3508C132.17 71.5526 131.991 71.631 131.811 71.5358L130.203 70.6504C130.024 70.5495 129.917 70.3086 129.957 70.1068L130.108 69.412C130.153 69.2103 130.332 69.1318 130.511 69.2271L132.119 70.1124C132.299 70.2077 132.411 70.4543 132.366 70.656L132.215 71.3508Z" fill="#D1D3D4"/>
<path d="M135.207 72.9983C135.162 73.2 134.983 73.2841 134.803 73.1832L133.195 72.2978C133.016 72.2026 132.904 71.956 132.949 71.7599L133.094 71.065C133.139 70.8633 133.318 70.7793 133.498 70.8801L135.106 71.7655C135.285 71.8664 135.392 72.1073 135.352 72.309L135.201 73.0039L135.207 72.9983Z" fill="#D1D3D4"/>
<path d="M138.199 74.6458C138.154 74.8475 137.975 74.9259 137.795 74.8307L136.187 73.9453C136.008 73.8501 135.901 73.6035 135.941 73.4018L136.086 72.7069C136.131 72.5052 136.31 72.4267 136.49 72.522L138.098 73.4074C138.277 73.5026 138.384 73.7492 138.344 73.9509L138.199 74.6458Z" fill="#D1D3D4"/>
<path d="M131.772 73.4298C131.727 73.6315 131.548 73.71 131.369 73.6147L129.761 72.7349C129.581 72.6341 129.475 72.3931 129.514 72.1914L129.665 71.4965C129.71 71.2948 129.889 71.2108 130.069 71.3116L131.677 72.197C131.856 72.2978 131.968 72.5388 131.923 72.7405L131.772 73.4354V73.4298Z" fill="#D1D3D4"/>
<path d="M134.758 75.0772C134.719 75.279 134.534 75.3574 134.361 75.2622L132.753 74.3768C132.573 74.2759 132.467 74.035 132.506 73.8332L132.657 73.1384C132.702 72.9367 132.881 72.8582 133.061 72.9535L134.669 73.8388C134.848 73.9397 134.955 74.1807 134.915 74.3824L134.764 75.0772H134.758Z" fill="#D1D3D4"/>
<path d="M137.756 76.7191C137.711 76.9208 137.532 77.0049 137.353 76.904L135.745 76.0186C135.565 75.9178 135.453 75.6768 135.498 75.4751L135.644 74.7802C135.689 74.5785 135.868 74.4945 136.047 74.5953L137.655 75.4807C137.835 75.5816 137.941 75.8225 137.902 76.0242L137.75 76.7191H137.756Z" fill="#D1D3D4"/>
<path d="M131.324 75.5087C131.279 75.7104 131.1 75.7945 130.92 75.6936L129.312 74.8083C129.133 74.7074 129.027 74.4664 129.066 74.2647L129.217 73.5699C129.262 73.3681 129.441 73.2841 129.62 73.385L131.229 74.2703C131.408 74.3712 131.52 74.6121 131.475 74.8139L131.329 75.5087H131.324Z" fill="#FDBB30"/>
<path d="M134.316 77.1562C134.277 77.3579 134.092 77.4364 133.912 77.3411L132.304 76.4557C132.125 76.3605 132.019 76.1139 132.058 75.9122L132.209 75.2173C132.254 75.0156 132.433 74.9371 132.612 75.0324L134.221 75.9178C134.4 76.013 134.506 76.2596 134.467 76.4613L134.316 77.1562Z" fill="#D1D3D4"/>
<path d="M137.308 78.798C137.263 78.9998 137.084 79.0782 136.904 78.983L135.296 78.0976C135.117 78.0023 135.005 77.7558 135.05 77.554L135.201 76.8592C135.24 76.6575 135.425 76.5734 135.605 76.6743L137.213 77.5596C137.392 77.6605 137.498 77.9015 137.459 78.1032L137.308 78.798Z" fill="#F05133"/>
<path d="M139.342 69.7202C139.269 70.0508 138.966 70.1909 138.669 70.0284L131.419 66.0722C131.122 65.9097 130.937 65.5063 131.01 65.1701L132.31 59.2302C132.383 58.8996 132.685 58.7595 132.988 58.922L140.238 62.8782C140.535 63.0407 140.72 63.4441 140.647 63.7804L139.347 69.7202H139.342Z" fill="#89D4E3"/>
<g style="mix-blend-mode:multiply" opacity="0.3">
<path d="M131.413 66.0666L138.664 70.0228C138.961 70.1853 139.263 70.0452 139.336 69.7146L140.636 63.7748C140.709 63.4441 140.524 63.0351 140.227 62.8726L131.408 66.0666H131.413Z" fill="#89D4E3"/>
</g>
<path d="M142.989 80.1934L141.998 79.7563L145.668 62.9454L146.811 62.0657L142.989 80.1934Z" fill="#A7A9AC"/>
<path d="M146.609 63.3713L130.399 54.3159L130.663 52.9374L146.811 62.0657L146.609 63.3713Z" fill="#CACACA"/>
<path d="M130.663 52.9374L137.465 49.0428L153.613 58.1711L146.811 62.0657L130.663 52.9374Z" fill="#A7A9AC"/>
<path d="M146.811 62.0657L153.613 58.1711L149.791 76.2988L142.989 80.1934L146.811 62.0657Z" fill="#464646"/>
<path d="M174.562 214.299L107.416 176.368V118.954L174.562 156.884V214.299Z" fill="#464646"/>
<path d="M174.562 214.299L212.904 192.327V134.913L174.562 156.884V214.299Z" fill="#7D7D7D"/>
<path d="M107.416 118.954L145.757 96.9818L212.904 134.913L174.562 156.884L107.416 118.954Z" fill="#A7A9AC"/>
<path d="M121.496 122.192C119.115 120.848 119.109 118.634 121.479 117.272L141.549 105.774C143.925 104.412 147.813 104.401 150.195 105.746L191.797 129.247C194.179 130.592 194.184 132.806 191.814 134.167L171.744 145.666C169.368 147.028 165.48 147.039 163.099 145.694L121.496 122.192Z" fill="#808285"/>
<g style="mix-blend-mode:multiply" opacity="0.3">
<path d="M151.971 111.983L128.433 123.352L161.939 142.276L185.18 128.513L151.971 111.983Z" fill="#808285"/>
</g>
<path d="M161.81 141.093L130.36 123.179L152.016 111.433L182.681 128.609L161.81 141.093Z" fill="#047235"/>
<path d="M130.36 123.179L128.847 103.426L153.848 91.0251L152.016 111.433L130.36 123.179Z" fill="#00853F"/>
<path d="M152.016 111.433L182.681 128.609L185.914 107.102L153.848 91.0251L152.016 111.433Z" fill="#006325"/>
<path d="M153.534 89.3945L127.659 102.21L161.81 121.8L187.393 106.592L153.534 89.3889V89.3945ZM130.567 102.49L153.848 91.0251L184.384 106.452L161.922 119.738L130.562 102.49H130.567Z" fill="#73C167"/>
<path d="M153.725 126.86L146.088 122.904V91.6247L153.725 95.5809V126.86Z" fill="#79BDE8"/>
<path d="M153.725 126.86L164.645 120.539V89.26L153.725 95.5809V126.86Z" fill="#A4D7F4"/>
<path d="M156.201 113.473L162.163 109.859V97.2731L156.201 100.893V113.473Z" fill="white"/>
<path d="M150.122 88.5539L161.042 82.2274L164.645 89.26L153.725 95.5809L150.122 88.5539Z" fill="#B9E0F7"/>
<path d="M160.499 80.07L161.042 82.2274L150.116 88.5483L150.161 86.2957C150.161 86.2957 150.015 85.5728 150.665 85.1918L159.843 79.8795C159.843 79.8795 160.353 79.4873 160.493 80.0644L160.499 80.07Z" fill="#79BDE8"/>
<path d="M146.088 91.6247L150.122 88.5539L153.725 95.5809L146.088 91.6247Z" fill="#6BB7DD"/>
<g style="mix-blend-mode:multiply" opacity="0.4">
<path d="M146.088 91.6247L150.122 88.5539L151.327 90.9074L146.088 91.6247Z" fill="#6BB7DD"/>
</g>
<path d="M159.838 89.882L160.616 88.8957L159.703 88.1897C159.496 87.8479 159.193 87.5285 158.807 87.2707C158.555 87.1026 158.291 86.9849 158.033 86.9008L156.974 86.0827L156.05 87.2651C156.016 87.3099 155.972 87.3491 155.938 87.394C155.428 88.1729 155.871 89.372 156.935 90.0837C157.871 90.7057 158.969 90.7337 159.574 90.207V90.1958C159.664 90.1229 159.737 90.0445 159.798 89.9492C159.815 89.9268 159.821 89.8988 159.838 89.8708V89.882Z" fill="#005596"/>
<path d="M160.616 88.8957C160.101 89.6746 158.818 89.7307 157.753 89.0246C156.689 88.3186 156.24 87.1138 156.756 86.3349C157.271 85.556 158.555 85.4999 159.619 86.206C160.684 86.9121 161.132 88.1168 160.616 88.8957Z" fill="#0067B1"/>
<path d="M173.604 119.693C173.604 119.693 176.54 120.976 179.678 117.766C179.678 117.766 176.462 110.397 179.852 106.485L179.353 105.667C179.353 105.667 177.857 106.782 177.179 107.948C177.179 107.948 177.566 105.869 177.935 105.169L175.789 104.76C175.789 104.76 175.375 108.677 175.739 110.139C175.739 110.139 174.887 105.522 174.971 104.76L172.607 104.732C172.607 104.732 174.383 110.604 174.658 112.039C174.658 112.039 172.422 105.813 171.918 105.286L171.357 105.55L172.472 108.262C172.472 108.262 170.92 105.634 170.186 105.606L169.648 106.015C169.648 106.015 172.439 109.198 172.276 109.814C172.108 110.43 171.173 109.579 171.173 109.579L169.581 107.152H168.702L169.01 108.497L167.357 108.116L167.346 110.335C167.346 110.335 173.262 109.836 173.599 119.693H173.604Z" fill="#8DD450"/>
<g style="mix-blend-mode:multiply" opacity="0.4">
<path d="M179.846 106.485L179.695 106.233L178.641 107.741C178.641 107.741 176.714 111.254 178.322 116.852C178.322 116.852 176.641 119.861 173.604 119.693C173.604 119.693 176.54 120.976 179.678 117.766C179.678 117.766 176.462 110.397 179.852 106.485H179.846Z" fill="#8DD450"/>
</g>
<g style="mix-blend-mode:multiply" opacity="0.4">
<path d="M173.24 116.477C172.691 112.352 169.598 109.08 169.015 108.492L167.362 108.111L167.351 110.33C167.351 110.33 171.89 109.943 173.24 116.477Z" fill="#8DD450"/>
</g>
<g style="mix-blend-mode:multiply" opacity="0.4">
<path d="M173.756 106.312L175.655 115.048L172.758 105.897L173.756 106.312Z" fill="#8DD450"/>
</g>
<g style="mix-blend-mode:multiply" opacity="0.4">
<path d="M175.907 106.788C175.907 106.788 175.386 111.221 175.963 113.288C175.963 113.288 175.582 108.06 176.591 106.777L175.913 106.788H175.907Z" fill="#8DD450"/>
</g>
<path d="M172.013 106.379C172.013 106.379 175.935 108.133 178.025 107.051C178.025 107.051 179.409 109.377 181.914 108.492C184.384 107.612 183.723 106.015 183.723 106.015C183.723 106.015 185.387 103.196 184.973 101.532C184.306 98.9038 182.698 98.3266 182.698 98.3266C182.698 98.3266 181.874 95.564 178.003 95.7153C178.003 95.7153 176.305 91.8432 172.288 95.1438C172.288 95.1438 169.665 94.6002 167.301 97.8111C167.301 97.8111 162.404 97.5757 161.9 101.128C161.9 101.128 158.129 103.801 162.012 107.786C162.012 107.786 161.042 110.425 163.838 111.837C166.494 113.182 166.791 111.433 166.987 109.909C166.987 109.909 168.388 110.514 169.189 108.402C169.189 108.402 171.144 108.38 172.007 106.373L172.013 106.379Z" fill="#008836"/>
<g style="mix-blend-mode:multiply" opacity="0.5">
<path d="M183.729 106.015C183.729 106.015 185.107 103.678 185.04 102.008C184.833 104.659 183.073 105.477 183.073 105.477C183.073 105.477 183.583 107.337 181.504 107.948C179.409 108.576 178.709 106.351 178.709 106.351C173.795 108.609 172.08 105.309 172.08 105.309C170.517 108.458 169.049 107.281 169.049 107.281C168.287 109.439 166.808 109.158 166.808 109.158C166.203 112.19 163.844 111.843 163.844 111.843C166.5 113.187 166.797 111.439 166.993 109.915C166.993 109.915 168.393 110.52 169.195 108.408C169.195 108.408 171.15 108.385 172.013 106.379C172.013 106.379 175.935 108.133 178.025 107.051C178.025 107.051 179.409 109.377 181.914 108.492C184.384 107.612 183.723 106.015 183.723 106.015H183.729Z" fill="#008836"/>
</g>
<path d="M162.387 103.219C162.387 103.219 161.715 98.9374 167.407 98.4835C167.407 98.4835 168.674 96.0011 172.232 96.074C172.232 96.074 173.01 93.6476 175.879 93.8942C175.879 93.8942 173.229 94.2248 172.82 96.7408C172.82 96.7408 169.155 96.3317 167.9 99.3129C167.9 99.3129 163.48 98.4611 162.387 103.213V103.219Z" fill="#00B541"/>
<path d="M172.349 100.265C172.349 100.265 175.817 97.5589 180.087 101.353C180.087 101.353 177.79 95.9339 172.349 100.265Z" fill="#00B541"/>
<path d="M169.43 105.012C169.43 105.012 171.985 102.546 176.187 103.403C176.187 103.403 173.436 101.089 169.43 105.012Z" fill="#00B541"/>
<g style="mix-blend-mode:multiply" opacity="0.5">
<path d="M182.474 103C182.474 103 179.997 105.326 176.053 104.558C176.053 104.558 178.613 106.67 182.474 103Z" fill="#008836"/>
</g>
<g style="mix-blend-mode:multiply" opacity="0.5">
<path d="M163.255 110.212C163.255 110.212 161.642 107.819 163.922 105.314C163.922 105.314 160.633 106.39 163.255 110.212Z" fill="#008836"/>
</g>
<g style="mix-blend-mode:multiply" opacity="0.5">
<path d="M164.925 107.511C164.925 107.511 164.062 103.342 168.903 101.123C168.903 101.123 163.48 100.803 164.925 107.511Z" fill="#008836"/>
</g>
<g style="mix-blend-mode:multiply" opacity="0.5">
<path d="M182.67 99.4193C182.67 99.4193 184.474 99.9405 185.018 101.784C185.006 101.7 184.995 101.61 184.973 101.526C184.306 98.8982 182.698 98.321 182.698 98.321C182.698 98.321 181.874 95.5584 178.003 95.7097C178.003 95.7097 182.054 96.4438 182.664 99.4137L182.67 99.4193Z" fill="#008836"/>
</g>
<path d="M149.097 98.5956C149.097 94.9028 146.261 93.2722 145.231 92.3588C144.2 91.4454 144.805 89.3664 144.805 89.3664L141.006 89.4841L137.213 89.6018C137.213 89.6018 137.818 91.6471 136.787 92.6221C135.756 93.5972 132.921 95.4015 132.921 99.0999C132.921 102.798 133.078 121.57 133.078 121.57C133.078 123.924 136.63 125.723 141.011 125.588C145.393 125.454 148.945 123.436 148.945 121.083C148.945 121.083 148.945 121.083 148.945 121.077C148.945 120.937 149.102 102.283 149.102 98.6068L149.097 98.5956Z" fill="white"/>
<path d="M149.052 112.33C142.653 113.647 139.331 113.748 132.932 112.823V102.047C139.331 102.966 142.653 102.866 149.052 101.554V112.33Z" fill="#FF80B3"/>
<g style="mix-blend-mode:multiply">
<path d="M144.973 124.888C147.343 124.075 148.94 122.652 148.94 121.077C148.94 121.077 148.94 121.077 148.94 121.072C148.94 120.932 149.097 102.277 149.097 98.6012C149.097 94.9252 146.261 93.2778 145.231 92.3644C144.2 91.451 144.805 89.3721 144.805 89.3721L141.488 89.4729V91.5575C141.488 91.5575 141.314 93.1601 142.289 93.8437C143.264 94.5218 146.284 95.6761 146.284 99.1392V121.778C146.284 121.778 146.502 123.571 144.973 124.893V124.888Z" fill="#E6E7E8"/>
</g>
<path d="M136.938 87.2539V89.5009C136.938 89.5009 136.938 89.5121 136.938 89.5233C136.938 89.5345 136.938 89.5402 136.938 89.5458V89.5626C136.977 90.7505 138.781 91.6583 141.006 91.5855C143.23 91.5182 145.04 90.504 145.079 89.3104V87.0073L136.932 87.2539H136.938Z" fill="#EB539E"/>
<path d="M145.079 87.0073C145.079 88.2177 143.258 89.2544 141.006 89.3216C138.759 89.3889 136.932 88.4643 136.932 87.2539C136.932 86.0435 138.753 85.0124 141.006 84.9396C143.258 84.8723 145.079 85.7969 145.079 87.0017V87.0073Z" fill="#FF80B3"/>
<path d="M148.962 106.032C148.962 106.032 147.914 105.628 147.309 105.679C146.699 105.729 144.065 105.712 141.807 107.808C139.543 109.904 137.482 113.58 138.731 117.39C139.981 121.201 144.272 123.806 148.592 123.537C152.918 123.268 158.151 120.371 158.151 115.479C158.151 110.587 157.171 106.048 148.962 106.032Z" fill="#E4003C"/>
<path d="M150.335 106.088L146.306 108.458L144.384 108.71C144.384 108.71 145.808 109.22 147.433 109.892C149.052 110.565 150.576 112.14 150.576 112.14L150.587 109.618C150.587 109.618 151.31 109.416 152.296 109.836C153.288 110.257 155.282 109.562 156.156 111.473C157.031 113.384 158.011 118.135 153.489 122.187C156.089 120.842 158.151 118.561 158.151 115.491C158.151 110.879 157.277 106.598 150.335 106.093V106.088Z" fill="#AA0A2F"/>
<path d="M140.546 114.062C140.675 108.951 143.953 106.452 144.093 106.345C143.348 106.654 142.558 107.113 141.807 107.808C139.543 109.904 137.482 113.58 138.731 117.39C139.981 121.201 144.272 123.806 148.592 123.537C149.248 123.498 149.926 123.397 150.598 123.235C144.127 122.652 140.406 119.284 140.541 114.056L140.546 114.062Z" fill="#AA0A2F"/>
<path d="M147.477 109.299C147.477 109.299 142.009 107.662 138.787 109.427C138.787 109.427 141.852 107.192 146.306 108.452C146.306 108.452 144.144 106.357 143.017 106.032C143.017 106.032 145.684 106.57 147.203 107.881C147.203 107.881 145.673 104.031 144.25 103.672C144.25 103.672 145.746 103.605 146.525 104.642C147.304 105.679 148.665 107.752 148.665 107.819C148.665 107.886 149.539 108.038 149.539 108.038C149.539 108.038 154.604 104.188 157.574 104.569C157.574 104.569 153.708 105.41 151.114 108.413C151.114 108.413 156.717 107.634 159.081 109.45C159.081 109.45 154.083 108.363 150.144 109.254C150.144 109.254 151.226 111.226 150.867 112.7C150.867 112.7 149.36 109.769 148.839 109.399C148.323 109.035 148.167 109.517 147.466 109.293L147.477 109.299Z" fill="#74AF27"/>
<path d="M148.873 105.449C148.873 105.449 148.716 106.984 148.514 107.376C148.312 107.769 148.043 108.744 148.043 108.744C148.043 108.744 148.867 108.419 149.259 108.592C149.595 108.738 149.87 108.62 149.87 108.62C149.87 108.62 150.027 106.502 150.374 105.914C150.374 105.914 149.691 105.404 148.878 105.449H148.873Z" fill="#29A038"/>
<g style="mix-blend-mode:multiply" opacity="0.5">
<path d="M138.816 109.416L138.787 109.433C138.799 109.428 138.804 109.422 138.816 109.416Z" fill="#74AF27"/>
<path d="M147.78 108.974C147.522 109.209 147.102 108.962 147.102 108.962C144.256 107.931 141.6 108.436 140.087 108.917C143.292 108.055 147.472 109.304 147.472 109.304C148.172 109.528 148.329 109.046 148.845 109.411C149.36 109.78 150.873 112.711 150.873 112.711C150.794 111.747 149.635 109.764 149.265 109.371C148.895 108.979 148.038 108.744 147.78 108.979V108.974Z" fill="#74AF27"/>
</g>
<g style="mix-blend-mode:multiply" opacity="0.4">
<path d="M157.585 104.575C151.853 105.449 150.178 109.203 150.178 109.203C150.178 109.203 150.228 109.214 150.312 109.226C154.229 108.402 159.092 109.455 159.092 109.455C156.728 107.64 151.125 108.419 151.125 108.419C153.713 105.41 157.585 104.575 157.585 104.575Z" fill="#74AF27"/>
</g>
<path d="M150.357 105.673C150.357 105.673 150.021 105.37 149.747 105.286C149.478 105.208 148.979 105.197 148.867 105.449C148.755 105.701 149.158 106.138 149.366 106.267C149.567 106.396 150.492 106.592 150.357 105.673Z" fill="#00853F"/>
<path d="M146.318 113.854C146.318 113.854 145.18 113.905 144.637 114.19C144.093 114.476 141.633 115.502 140.362 118.298C139.09 121.094 138.63 125.246 141.297 128.199C143.97 131.158 148.996 131.814 152.907 129.858C156.823 127.897 160.544 123.195 158.605 118.763C156.666 114.325 153.96 110.61 146.318 113.849V113.854Z" fill="#E4003C"/>
<path d="M147.617 113.356L144.81 117.104L143.124 118.091C143.124 118.091 144.648 117.99 146.424 117.95C148.2 117.917 150.24 118.741 150.24 118.741L149.253 116.449C149.253 116.449 149.842 115.978 150.929 115.967C152.016 115.956 153.596 114.532 155.17 115.911C156.745 117.295 159.535 121.212 156.935 126.681C158.823 124.434 159.832 121.548 158.616 118.763C156.79 114.583 154.279 111.052 147.623 113.35L147.617 113.356Z" fill="#AA0A2F"/>
<path d="M141.667 124.467C139.762 119.783 141.818 116.219 141.908 116.068C141.336 116.645 140.782 117.373 140.356 118.304C139.084 121.1 138.625 125.252 141.292 128.205C143.964 131.164 148.99 131.819 152.901 129.864C153.495 129.567 154.083 129.208 154.649 128.793C148.402 130.833 143.606 129.259 141.656 124.467H141.667Z" fill="#AA0A2F"/>
<path d="M146.234 117.401C146.234 117.401 140.496 118.091 138.204 120.971C138.204 120.971 140.166 117.732 144.81 117.104C144.81 117.104 141.97 116.062 140.793 116.213C140.793 116.213 143.488 115.642 145.427 116.23C145.427 116.23 142.474 113.35 141.012 113.585C141.012 113.585 142.379 112.93 143.511 113.557C144.642 114.19 146.732 115.524 146.76 115.586C146.788 115.647 147.662 115.44 147.662 115.44C147.662 115.44 150.851 109.943 153.764 109.114C153.764 109.114 150.498 111.405 149.282 115.16C149.282 115.16 154.184 112.235 157.103 112.941C157.103 112.941 152.022 113.944 148.71 116.309C148.71 116.309 150.498 117.665 150.75 119.144C150.75 119.144 148.183 117.088 147.556 116.959C146.928 116.835 146.973 117.328 146.234 117.401Z" fill="#74AF27"/>
<path d="M146.004 113.361C146.004 113.361 146.463 114.812 146.43 115.244C146.396 115.681 146.53 116.667 146.53 116.667C146.53 116.667 147.169 116.051 147.601 116.051C147.97 116.051 148.178 115.832 148.178 115.832C148.178 115.832 147.483 113.854 147.578 113.182C147.578 113.182 146.738 112.991 146.004 113.356V113.361Z" fill="#29A038"/>
<g style="mix-blend-mode:multiply" opacity="0.5">
<path d="M138.216 120.948L138.199 120.971C138.199 120.96 138.21 120.954 138.216 120.948Z" fill="#74AF27"/>
<path d="M146.385 116.987C146.239 117.3 145.752 117.244 145.752 117.244C142.692 117.446 140.429 118.954 139.213 119.985C141.852 117.934 146.233 117.401 146.233 117.401C146.973 117.328 146.928 116.83 147.556 116.959C148.183 117.088 150.75 119.144 150.75 119.144C150.296 118.298 148.43 116.97 147.926 116.757C147.427 116.55 146.536 116.678 146.385 116.992V116.987Z" fill="#74AF27"/>
</g>
<g style="mix-blend-mode:multiply" opacity="0.4">
<path d="M153.764 109.114C148.777 112.179 148.71 116.247 148.71 116.247C148.71 116.247 148.76 116.236 148.844 116.213C152.161 113.916 157.103 112.941 157.103 112.941C154.184 112.235 149.282 115.16 149.282 115.16C150.497 111.411 153.764 109.114 153.764 109.114Z" fill="#74AF27"/>
</g>
<path d="M147.472 112.98C147.472 112.98 147.04 112.834 146.755 112.868C146.469 112.902 146.009 113.092 146.004 113.361C146.004 113.636 146.547 113.871 146.788 113.905C147.023 113.944 147.965 113.753 147.472 112.974V112.98Z" fill="#00853F"/>
<path d="M152.548 128.379C152.548 128.379 153.092 132.105 156.504 134.492C159.916 136.88 163.889 135.955 165.306 130.923C166.718 125.891 168.808 120.427 169.716 116.51C170.629 112.593 171.957 104.502 167.194 103.633C162.432 102.765 158.185 104.188 155.187 110.705C152.195 117.216 151.383 121.57 152.548 128.379Z" fill="#FDBB30"/>
<path d="M162.062 103.785C162.062 103.785 161.065 109.125 162.684 116.006C162.684 116.006 158.538 110.879 158.964 105.443C159.938 104.642 160.969 104.104 162.062 103.785Z" fill="#FFD478"/>
<path d="M152.834 116.981C153.355 115.02 154.134 112.997 155.187 110.705C155.187 110.705 157.126 120.685 160.672 125.538C160.672 125.538 154.705 122.12 152.834 116.981Z" fill="#FFD478"/>
<path d="M152.044 123.111C152.167 123.403 154.19 128.037 158.622 130.475C158.622 130.475 154.957 129.763 152.458 127.818C152.195 126.126 152.055 124.585 152.044 123.117V123.111Z" fill="#FFD478"/>
<g style="mix-blend-mode:multiply" opacity="0.5">
<path d="M153.652 131.338C153.652 131.338 158.605 135.305 162.045 132.8C165.485 130.301 168.707 118.444 169.234 114.644C169.766 110.845 170.164 107.517 169.912 105.83C169.912 105.83 169.912 105.824 169.912 105.819C171.251 108.71 170.377 113.692 169.721 116.51C168.808 120.427 166.724 125.891 165.312 130.923C163.894 135.955 159.922 136.88 156.509 134.492C155.153 133.545 154.251 132.385 153.657 131.332L153.652 131.338Z" fill="#BB8D0B"/>
</g>
<g style="mix-blend-mode:multiply" opacity="0.8">
<path d="M162.062 103.785C162.062 103.785 161.065 109.125 162.684 116.006C160.359 109.624 160.818 105.477 161.076 104.143C161.401 104.009 161.726 103.885 162.062 103.785Z" fill="#BB8D0B"/>
</g>
<g style="mix-blend-mode:multiply" opacity="0.8">
<path d="M154.218 112.935C154.509 112.218 154.829 111.473 155.187 110.705C155.187 110.705 157.126 120.685 160.672 125.538C156.297 120.741 154.229 112.974 154.223 112.941L154.218 112.935Z" fill="#BB8D0B"/>
</g>
<g style="mix-blend-mode:multiply" opacity="0.8">
<path d="M152.145 125.252C152.083 124.518 152.044 123.801 152.044 123.111C152.167 123.403 154.19 128.037 158.622 130.475C158.622 130.475 154.257 128.401 152.145 125.258V125.252Z" fill="#BB8D0B"/>
</g>
<path d="M129.144 108.307L130.354 123.179L161.804 141.093V126.664L129.144 108.307ZM136.271 123.857L135.033 123.151C134.607 122.91 134.232 122.31 134.198 121.817L133.632 113.921C133.599 113.428 133.912 113.227 134.333 113.473L135.649 114.23C136.07 114.471 136.439 115.076 136.473 115.563L136.983 123.397C137.016 123.89 136.697 124.092 136.271 123.857ZM143.354 127.757L142.143 127.068C141.717 126.827 141.353 126.227 141.325 125.734L140.905 117.99C140.877 117.497 141.202 117.295 141.622 117.536L142.911 118.276C143.331 118.522 143.695 119.122 143.718 119.615L144.076 127.297C144.099 127.79 143.774 127.998 143.348 127.757H143.354ZM149.898 131.528L148.716 130.856C148.29 130.615 147.931 130.015 147.914 129.522L147.634 121.94C147.612 121.447 147.948 121.245 148.368 121.486L149.623 122.209C150.044 122.456 150.402 123.055 150.419 123.549L150.643 131.074C150.66 131.567 150.324 131.775 149.903 131.534L149.898 131.528ZM156.549 135.26L155.394 134.604C154.969 134.363 154.616 133.764 154.61 133.271L154.464 125.829C154.453 125.336 154.789 125.134 155.215 125.375L156.442 126.081C156.862 126.322 157.215 126.927 157.221 127.421L157.311 134.806C157.311 135.299 156.974 135.507 156.549 135.266V135.26Z" fill="#F01100"/>
<path d="M161.81 126.664V141.093L182.687 128.609L185.046 112.711L161.815 126.67L161.81 126.664ZM166.718 134.694C166.701 135.187 166.332 135.804 165.906 136.056L164.92 136.639C164.488 136.896 164.141 136.7 164.146 136.201L164.236 129.326C164.242 128.833 164.595 128.205 165.015 127.942L166.231 127.168C166.651 126.899 166.981 127.084 166.97 127.577L166.718 134.694ZM173.313 130.861C173.268 131.354 172.881 131.965 172.45 132.223L171.301 132.901C170.87 133.159 170.545 132.963 170.579 132.469L171.088 125C171.122 124.507 171.492 123.885 171.918 123.616L173.324 122.719C173.744 122.45 174.052 122.635 174.013 123.128L173.318 130.861H173.313ZM180.16 126.787C180.087 127.281 179.678 127.891 179.247 128.143L177.924 128.928C177.493 129.186 177.19 128.99 177.252 128.496L178.232 120.354C178.294 119.861 178.686 119.239 179.106 118.97L180.726 117.945C181.146 117.676 181.437 117.855 181.364 118.348L180.16 126.787Z" fill="#BB170B"/>
<path d="M127.659 102.21L127.771 107.483L161.81 126.726V121.8L127.659 102.21Z" fill="#BB170B"/>
<path d="M161.81 126.726L187.018 111.523L187.393 106.598L161.81 121.8V126.726Z" fill="#A01D13"/>
<path d="M187.393 106.598L184.384 106.446L161.928 119.732L130.567 102.49L127.659 102.21L161.81 121.8L187.393 106.598Z" fill="#F01100"/>
<path d="M47.2335 168.462C47.2335 168.462 46.253 170.753 49.6596 171.7C53.0719 172.647 63.6336 173.488 63.7233 175.511C63.9978 181.496 56.4617 182.986 59.3977 185.351C62.3337 187.721 67.2364 186.937 73.5846 185.519C79.9272 184.096 86.9086 180.778 81.3224 179.26C75.7361 177.741 71.024 179.523 70.0267 177.237C69.0293 174.951 63.3927 172.563 64.4685 171.431C65.5442 170.3 76.0835 167.229 68.9229 166.741C60.3782 166.158 50.4609 162.998 47.2335 168.456V168.462Z" fill="#E6E7E8"/>
<path d="M58.9383 160.375C58.9383 160.375 61.0394 162.348 63.7569 161.844C66.4687 161.339 74.1113 165.2 69.2983 168.372C64.4516 171.543 56.7026 170.658 56.7026 170.658L55.7165 171.717C55.7165 171.717 50.7018 171.762 48.8416 170.524C46.9702 169.28 48.9593 161.507 48.9593 161.507L50.9651 159.479C50.9651 159.479 57.5991 160.51 58.9383 160.375Z" fill="#1F191A"/>
<path d="M50.007 86.5927C50.007 86.5927 49.2058 98.3715 51.884 104.967C54.5623 111.574 53.4921 119.777 52.9542 121.386C52.4163 122.994 49.2058 149.768 49.0321 159.4L61.2803 161.065C61.2803 161.065 63.8353 130.491 65.0904 120.5C66.3399 110.509 66.0373 89.4449 66.0373 89.4449L50.007 86.5927Z" fill="#404277"/>
<path d="M69.6961 174.597C69.6961 174.597 71.9821 176.329 74.6435 175.567C77.2882 174.777 85.2837 177.842 80.8125 181.484C76.3245 185.132 68.5194 185.043 68.5194 185.043L67.6454 186.197C67.6454 186.197 62.6587 186.757 60.6808 185.709C58.6973 184.673 60.0757 176.34 60.0757 176.34L61.8518 173.987C61.8518 173.987 68.3794 174.861 69.6905 174.603L69.6961 174.597Z" fill="#1F191A"/>
<path d="M78.8907 89.2152C78.8907 89.2152 79.3613 119.424 78.6497 125.857C77.9325 132.273 72.5817 157.972 72.5817 162.97C72.5817 167.968 72.027 174.569 72.027 174.569C72.027 174.569 62.1768 176.178 58.6077 173.499C58.6077 173.499 58.0306 158.689 60.4847 145.991C62.95 133.299 66.8722 118.007 63.303 109.439C59.7339 100.871 54.0693 95.5977 53.6938 87.7919C53.6938 87.7919 70.1499 91.3558 78.8907 89.2152Z" fill="#4C4E83"/>
<path d="M73.7583 7.80024C73.7583 7.80024 75.5736 8.98821 74.7388 13.4879C74.6379 14.0259 75.512 16.1664 74.9965 18.957C74.8677 19.6407 73.4053 22.9524 73.0243 24.2469C72.6377 25.5469 72.3743 26.634 71.2537 26.6172C69.1189 26.5836 67.1243 24.7736 66.704 23.4455C66.704 23.4455 65.1184 27.312 66.5696 30.4332C66.5696 30.4332 57.6664 32.4842 54.5455 25.7094C54.5455 25.7094 59.14 22.7675 56.2432 17.7635C53.4473 12.9163 55.8342 3.28933 62.5074 2.55526C69.1806 1.81558 73.9039 4.22514 73.7639 7.80024H73.7583Z" fill="#F4B795"/>
<g style="mix-blend-mode:multiply" opacity="0.3">
<path d="M65.9589 27.4633C65.9589 27.4633 65.9645 27.4745 65.9701 27.4801C65.9589 25.3059 66.6985 23.4455 66.6985 23.4455C66.6985 23.4455 65.8356 21.8317 65.6451 20.683C65.6451 20.683 65.393 24.23 65.9589 27.4633Z" fill="#F1CFA5"/>
</g>
<path d="M69.3151 16.5531C69.3151 16.5531 68.7323 12.7034 67.1299 13.2358C65.9084 13.6448 65.2977 14.7487 65.8804 17.007C66.3006 18.6376 62.5354 23.468 61.7286 23.6473C60.9217 23.8266 56.8875 21.9606 57.0276 22.2744C57.3358 22.958 53.2007 12.8715 55.2403 8.11405C57.0388 3.91694 58.4452 1.50739 61.37 0.616412C64.2947 -0.268959 66.3623 -0.274563 68.3289 1.05349C70.2956 2.37595 72.6489 3.01476 73.607 2.90829C75.3327 2.71777 77.008 3.68719 76.1003 6.57305C75.1926 9.45331 74.9125 11.112 71.6795 12.412C71.6795 12.412 69.3767 13.1573 69.3039 16.5587L69.3151 16.5531Z" fill="#853830"/>
<path d="M92.8758 55.5038L95.5316 61.2139C95.5316 61.2139 101 56.9047 102.261 56.0362C103.516 55.162 104.922 55.3581 105.449 55.403C105.987 55.4534 108.648 55.3133 109.085 54.7754C109.517 54.243 109.668 53.6154 109.668 53.6154C109.668 53.6154 110.004 53.565 110.296 53.0831C110.587 52.6012 110.637 51.8727 110.637 51.8727C110.637 51.8727 111.411 51.3852 111.506 50.9033C111.601 50.4157 111.506 49.8442 111.17 49.6929C110.834 49.5472 110.396 49.1157 110.396 49.1157C110.396 49.1157 111.265 48.6338 112.285 48.2415C113.299 47.8549 115.187 47.5131 115.574 47.4234C115.96 47.3225 115.82 46.4035 114.896 46.4035C113.971 46.4035 112.234 46.4036 111.556 46.6949C110.878 46.9863 110.492 47.1264 110.004 46.9863C109.522 46.8406 108.329 46.4428 107.83 46.4988C106.659 46.6445 105.892 47.4682 105.41 47.6644C104.928 47.8605 103.135 50.3261 102.121 50.7632C101.101 51.2002 92.8814 55.5038 92.8814 55.5038H92.8758Z" fill="#F4B795"/>
<path d="M77.8317 69.1598C77.5011 68.7844 79.563 89.8036 79.563 89.8036C65.1128 95.508 48.1412 85.6961 48.1412 85.6961C48.1412 85.6961 49.3963 79.2744 49.5644 74.2759C49.7437 69.2831 44.7514 48.5778 44.0342 45.1876C43.317 41.7974 45.463 30.0242 46.8861 26.4491C48.3149 22.8852 56.3048 23.877 56.3048 23.877C56.4449 31.3578 66.3511 29.6487 66.3511 29.6487C66.3511 29.6487 71.7692 31.9686 73.4893 33.476C75.2094 34.9778 79.7255 38.2055 79.9384 41.0017C80.1569 43.7923 83.345 59.1574 83.345 59.1574L97.1453 52.3994C97.1453 52.3994 101.017 54.9771 101.443 58.6362C101.443 58.6362 84.8859 68.3081 82.9528 68.9581C82.9528 68.9581 79.4061 70.9474 77.8317 69.1654V69.1598Z" fill="#53334E"/>
<g style="mix-blend-mode:multiply" opacity="0.4">
<path d="M79.563 89.8035C79.563 89.8035 78.8122 75.6544 77.8317 69.1598C74.1393 66.3188 73.3437 63.5282 73.1308 62.0264C72.9178 60.5191 72.4192 54.5456 71.9877 50.892C71.5563 47.2385 69.4103 42.397 69.6289 45.8376C69.8418 49.2782 72.8282 57.6276 71.1081 62.1441C70.1107 64.7554 75.8594 70.2469 76.2909 79.9188C76.4646 83.8357 76.5094 88.9518 70.2732 89.5962C64.037 90.2406 51.1389 85.2982 49.8502 84.4353C48.5615 83.5723 50.713 76.4782 51.3574 70.6728C52.0017 64.8675 47.9171 47.2329 46.197 44.2237C44.4881 41.2258 45.9336 29.7272 45.9505 29.6039C44.7066 34.5687 43.4795 42.509 44.0454 45.1876C44.7626 48.5778 49.7549 69.2831 49.5756 74.2759C49.4019 79.2744 48.1524 85.6961 48.1524 85.6961C48.1524 85.6961 65.124 95.508 79.5742 89.8035H79.563Z" fill="#005DBA"/>
</g>
</g>
<defs>
<clipPath id="clip0_169_266407">
<rect width="219" height="217" fill="white"/>
</clipPath>
</defs>
</svg>
