<svg width="236" height="65" viewBox="0 0 236 65" fill="none" xmlns="http://www.w3.org/2000/svg">
<circle cx="32.5" cy="32.5" r="32.5" fill="white"/>
<circle cx="32.5" cy="32.5" r="28.9286" fill="#E91B1A"/>
<path fill-rule="evenodd" clip-rule="evenodd" d="M30.1303 18.9645C30.893 17.7626 30.5397 16.1684 29.3417 15.4036C28.1434 14.6388 26.5541 14.9931 25.7916 16.1949L16.7313 30.4764H10.4285C9.0084 30.4764 7.85712 31.6312 7.85712 33.0557C7.85712 34.4803 9.0084 35.6351 10.4285 35.6351H10.8919L14.7945 55.208C15.5157 58.825 18.6817 61.4286 22.359 61.4286H44.7839C48.461 61.4286 51.6272 58.825 52.3482 55.208L56.2509 35.6351H56.7143C58.1345 35.6351 59.2857 34.4803 59.2857 33.0557C59.2857 31.6312 58.1345 30.4764 56.7143 30.4764H50.4114L41.3513 16.1949C40.5888 14.9931 38.9994 14.6388 37.8011 15.4036C36.6031 16.1684 36.2501 17.7626 37.0125 18.9645L44.3156 30.4764H22.8272L30.1303 18.9645ZM18.0988 35.6351C18.1266 35.6356 18.1543 35.6356 18.182 35.6351H48.9609C48.9884 35.6356 49.0162 35.6356 49.0439 35.6351H51.0062L47.3054 54.1963C47.065 55.4019 46.0097 56.2699 44.7839 56.2699H22.359C21.1332 56.2699 20.0779 55.4019 19.8375 54.1963L16.1366 35.6351H18.0988Z" fill="white"/>
<mask id="path-4-outside-1_169_249304" maskUnits="userSpaceOnUse" x="27.7574" y="39.2426" width="26" height="23" fill="black">
<rect fill="white" x="27.7574" y="39.2426" width="26" height="23"/>
<path fill-rule="evenodd" clip-rule="evenodd" d="M39.4484 43.3313C37.1072 41.6834 33.8511 41.9063 31.7574 44C32.9408 45.1834 34.4955 45.7691 36.0465 45.7572C34.9457 47.1094 34.2857 48.8348 34.2857 50.7143C34.2857 55.0537 37.8035 58.5714 42.1428 58.5714C46.4822 58.5714 50 55.0537 50 50.7143C50 46.3749 46.4822 42.8572 42.1428 42.8572C41.1963 42.8572 40.2888 43.0245 39.4484 43.3313Z"/>
</mask>
<path fill-rule="evenodd" clip-rule="evenodd" d="M39.4484 43.3313C37.1072 41.6834 33.8511 41.9063 31.7574 44C32.9408 45.1834 34.4955 45.7691 36.0465 45.7572C34.9457 47.1094 34.2857 48.8348 34.2857 50.7143C34.2857 55.0537 37.8035 58.5714 42.1428 58.5714C46.4822 58.5714 50 55.0537 50 50.7143C50 46.3749 46.4822 42.8572 42.1428 42.8572C41.1963 42.8572 40.2888 43.0245 39.4484 43.3313Z" fill="#5DCF4A"/>
<path d="M31.7574 44L29.7732 42.0158L27.7889 44L29.7732 45.9842L31.7574 44ZM39.4484 43.3313L37.8332 45.626L39.0327 46.4703L40.4106 45.9673L39.4484 43.3313ZM36.0465 45.7572L38.2226 47.5288L41.9867 42.9053L36.0249 42.9511L36.0465 45.7572ZM33.7416 45.9842C34.8541 44.8718 36.5886 44.75 37.8332 45.626L41.0635 41.0367C37.6258 38.6169 32.8481 38.9408 29.7732 42.0158L33.7416 45.9842ZM36.0249 42.9511C35.1947 42.9575 34.372 42.6462 33.7416 42.0158L29.7732 45.9842C31.5096 47.7206 33.7963 48.5807 36.0681 48.5632L36.0249 42.9511ZM37.0918 50.7143C37.0918 49.5034 37.5144 48.3988 38.2226 47.5288L33.8703 43.9855C32.3769 45.8199 31.4796 48.1661 31.4796 50.7143H37.0918ZM42.1428 55.7653C39.3532 55.7653 37.0918 53.5039 37.0918 50.7143H31.4796C31.4796 56.6035 36.2537 61.3776 42.1428 61.3776V55.7653ZM47.1939 50.7143C47.1939 53.5039 44.9324 55.7653 42.1428 55.7653V61.3776C48.032 61.3776 52.8061 56.6035 52.8061 50.7143H47.1939ZM42.1428 45.6633C44.9324 45.6633 47.1939 47.9247 47.1939 50.7143H52.8061C52.8061 44.8251 48.032 40.051 42.1428 40.051V45.6633ZM40.4106 45.9673C40.9472 45.7714 41.5293 45.6633 42.1428 45.6633V40.051C40.8632 40.051 39.6303 40.2777 38.4861 40.6954L40.4106 45.9673Z" fill="white" mask="url(#path-4-outside-1_169_249304)"/>
<path d="M91.3559 20L83.6819 27.8492L92.071 39.8883H86.68L80.7388 30.9497L78.2358 33.4637V39.8883H74V20H78.2358V28.2682L85.9373 20H91.3559Z" fill="white"/>
<path d="M107.63 32.6816C107.63 34.9907 106.961 36.8436 105.622 38.2402C104.302 39.6369 102.533 40.3352 100.314 40.3352C98.0951 40.3352 96.3164 39.6369 94.9778 38.2402C93.6392 36.8436 92.9699 34.9907 92.9699 32.6816C92.9699 30.3911 93.6484 28.5475 95.0053 27.1508C96.3622 25.7542 98.1501 25.0559 100.369 25.0559C102.551 25.0559 104.302 25.7542 105.622 27.1508C106.961 28.5475 107.63 30.3911 107.63 32.6816ZM103.725 32.6536C103.725 31.2197 103.413 30.1024 102.789 29.3017C102.184 28.4823 101.341 28.0726 100.259 28.0726C99.2136 28.0726 98.3885 28.4823 97.7833 29.3017C97.1782 30.121 96.8757 31.2477 96.8757 32.6816C96.8757 34.1527 97.1782 35.298 97.7833 36.1173C98.3885 36.9367 99.232 37.3464 100.314 37.3464C101.396 37.3464 102.23 36.9367 102.817 36.1173C103.422 35.2793 103.725 34.1248 103.725 32.6536Z" fill="white"/>
<path d="M113.883 25.4749V27.2626C114.91 25.8101 116.377 25.0838 118.284 25.0838C120.191 25.0838 121.722 25.7821 122.877 27.1788C124.032 28.5754 124.61 30.4376 124.61 32.7654C124.61 35.0186 124.042 36.8343 122.905 38.2123C121.786 39.5717 120.301 40.2514 118.449 40.2514C116.542 40.2514 115.084 39.5345 114.076 38.1006V45H110.197V25.4749H113.883ZM117.321 28.2682C116.258 28.2682 115.423 28.6592 114.818 29.4413C114.231 30.2235 113.938 31.3128 113.938 32.7095C113.938 34.1061 114.241 35.1955 114.846 35.9777C115.451 36.7598 116.285 37.1508 117.349 37.1508C118.394 37.1508 119.21 36.7598 119.797 35.9777C120.402 35.1955 120.704 34.1248 120.704 32.7654C120.704 31.3687 120.402 30.27 119.797 29.4693C119.192 28.6685 118.366 28.2682 117.321 28.2682Z" fill="white"/>
<path d="M139.417 35.6145C139.417 37.1415 138.821 38.3054 137.629 39.1061C136.437 39.9069 134.824 40.3073 132.788 40.3073C130.863 40.3073 129.277 39.8883 128.03 39.0503C126.783 38.2123 126.15 36.9274 126.132 35.1955H129.845C129.992 36.797 131 37.5978 132.871 37.5978C133.714 37.5978 134.347 37.4209 134.769 37.067C135.19 36.7132 135.401 36.2477 135.401 35.6704C135.401 34.3296 134.585 33.6592 132.953 33.6592H131.44V31.1732H132.458C133.338 31.1732 134.008 31.0335 134.466 30.7542C134.924 30.4749 135.154 29.9907 135.154 29.3017C135.154 28.8361 134.961 28.4544 134.576 28.1564C134.191 27.8399 133.641 27.6816 132.926 27.6816C132.101 27.6816 131.468 27.8305 131.028 28.1285C130.606 28.4264 130.34 28.9385 130.23 29.6648H126.6C126.655 28.1006 127.287 26.946 128.497 26.2011C129.708 25.4376 131.211 25.0559 133.008 25.0559C136.969 25.0559 138.949 26.3501 138.949 28.9385C138.949 29.7207 138.684 30.419 138.152 31.0335C137.62 31.648 137.033 32.0112 136.391 32.1229V32.1788C137.235 32.2905 137.95 32.6071 138.537 33.1285C139.124 33.6499 139.417 34.4786 139.417 35.6145Z" fill="white"/>
<path d="M155.071 39.8883H151.33V30.1397L146.269 39.8883H141.84V25.4749H145.581V35.2235L150.642 25.4749H155.071V39.8883Z" fill="white"/>
<path d="M171.375 39.8883H167.497V33.8268H162.023V39.8883H158.145V25.4749H162.023V30.6983H167.497V25.4749H171.375V39.8883Z" fill="white"/>
<path d="M188.642 32.6816C188.642 34.9907 187.973 36.8436 186.634 38.2402C185.314 39.6369 183.545 40.3352 181.326 40.3352C179.107 40.3352 177.328 39.6369 175.99 38.2402C174.651 36.8436 173.982 34.9907 173.982 32.6816C173.982 30.3911 174.66 28.5475 176.017 27.1508C177.374 25.7542 179.162 25.0559 181.381 25.0559C183.563 25.0559 185.314 25.7542 186.634 27.1508C187.973 28.5475 188.642 30.3911 188.642 32.6816ZM184.736 32.6536C184.736 31.2197 184.425 30.1024 183.801 29.3017C183.196 28.4823 182.353 28.0726 181.271 28.0726C180.226 28.0726 179.4 28.4823 178.795 29.3017C178.19 30.121 177.888 31.2477 177.888 32.6816C177.888 34.1527 178.19 35.298 178.795 36.1173C179.4 36.9367 180.244 37.3464 181.326 37.3464C182.408 37.3464 183.242 36.9367 183.829 36.1173C184.434 35.2793 184.736 34.1248 184.736 32.6536Z" fill="white"/>
<path d="M200.121 31.4525V25.4749H203.999V39.8883H200.121V34.2179C198.434 34.6462 196.921 34.8603 195.583 34.8603C194.042 34.8603 192.86 34.4227 192.034 33.5475C191.228 32.6536 190.824 31.4246 190.824 29.8603V25.4749H194.702V29.0503C194.702 30.1117 194.849 30.8473 195.142 31.257C195.454 31.6667 196.032 31.8715 196.875 31.8715C198.031 31.8715 199.112 31.7318 200.121 31.4525Z" fill="white"/>
<path d="M221.499 39.8883H216.768L212.669 33.6872L210.937 35.4749V39.8883H207.113V25.4749H210.937V31.1732L216.135 25.4749H220.729L215.227 31.0615L221.499 39.8883Z" fill="white"/>
<path d="M236 39.8883H232.039C231.911 39.5158 231.819 39.0503 231.764 38.4916C230.572 39.702 229.041 40.3073 227.171 40.3073C225.594 40.3073 224.356 39.9255 223.458 39.162C222.559 38.3799 222.11 37.3091 222.11 35.9497C222.11 35.3352 222.183 34.7952 222.33 34.3296C222.495 33.8641 222.752 33.473 223.1 33.1564C223.467 32.8399 223.806 32.5791 224.118 32.3743C224.448 32.1695 224.897 32.0019 225.465 31.8715C226.034 31.7412 226.492 31.648 226.841 31.5922C227.189 31.5177 227.675 31.4432 228.298 31.3687C229.674 31.1825 230.591 30.987 231.049 30.7821C231.526 30.5773 231.764 30.1955 231.764 29.6369C231.764 28.352 230.911 27.7095 229.206 27.7095C228.308 27.7095 227.648 27.8771 227.226 28.2123C226.804 28.5289 226.529 29.0968 226.401 29.9162H222.742C222.962 26.676 225.154 25.0559 229.316 25.0559C233.442 25.0559 235.505 26.6201 235.505 29.7486V35.9777C235.505 37.8026 235.67 39.1061 236 39.8883ZM231.737 32.8771C231.278 33.1564 230.361 33.4078 228.986 33.6313C227.831 33.8175 227.079 34.0503 226.731 34.3296C226.327 34.6834 226.126 35.1676 226.126 35.7821C226.126 36.378 226.309 36.8529 226.676 37.2067C227.061 37.5419 227.593 37.7095 228.271 37.7095C229.316 37.7095 230.151 37.4302 230.774 36.8715C231.416 36.2942 231.737 35.5028 231.737 34.4972V32.8771Z" fill="white"/>
</svg>
