<svg width="21" height="18" viewBox="0 0 21 18" fill="none" xmlns="http://www.w3.org/2000/svg">
<path d="M21 5.81387C21 12.3779 11.2697 17.691 10.8553 17.9105C10.7461 17.9692 10.624 18 10.5 18C10.376 18 10.2539 17.9692 10.1447 17.9105C9.73031 17.691 0 12.3779 0 5.81387C0.00173694 4.27247 0.614681 2.7947 1.70436 1.70476C2.79404 0.614826 4.27146 0.00173735 5.8125 0C7.74844 0 9.44344 0.832696 10.5 2.24022C11.5566 0.832696 13.2516 0 15.1875 0C16.7285 0.00173735 18.206 0.614826 19.2956 1.70476C20.3853 2.7947 20.9983 4.27247 21 5.81387Z" fill="white"/>
</svg>
